<svg preserveAspectRatio="none" overflow="visible" style="display: block;" width="382.689" height="335.853" viewBox="0 0 382.689 335.853" fill="none" xmlns="http://www.w3.org/2000/svg">
<g id="Group 112">
<path id="Vector" d="M253.105 288.273C255.232 289.707 256.277 288.025 257.284 287.104C288.864 258.215 322.954 255.105 358.462 267.132C366.341 269.8 374.348 272.094 382.689 277.873C361.673 297.14 341.4 315.725 321.01 335.081C300.105 335.852 279.318 335.852 257.783 335.852C254.847 331.074 257.76 329.059 259.621 326.792C264.246 321.158 269.473 316.828 275.056 313.385C264.329 319.941 254.22 328.321 243.065 335.309C237.829 335.852 232.991 335.852 227.427 335.852C224.196 330.201 227.408 326.58 229.314 323C232.811 316.431 236.715 310.298 240.487 303.067C241.129 301.593 241.545 300.814 242.311 299.538C242.846 298.675 243.064 298.343 243.946 297.101C244.833 295.913 245.056 295.636 245.617 294.972C246.182 294.351 246.41 294.116 246.985 293.566C247.561 293.06 247.791 292.869 248.361 292.405C248.7 292.132 249.358 291.584 249.674 291.296C249.989 291.008 250.592 290.388 251.179 289.739C251.765 289.089 252.388 288.504 253.105 288.273Z" fill="#42552B"/>
<path id="Vector_2" d="M242.215 301.151C239.676 314.782 230.39 321.685 226.78 335.061C214.964 335.851 203.223 335.851 190.735 335.851C186.712 320.678 184.184 305.099 176.772 292.403C175.374 290.009 175.246 286.103 174.214 282.388C172.223 278.985 172.36 275.353 171.945 270.91C173.54 266.609 176.057 266.687 178.381 266.286C181.19 265.803 183.051 264.106 184.654 260.447C187.9 253.032 190.958 252.979 193.678 260.605C196.231 267.761 198.735 274.4 203.566 279.156C206.274 281.821 206.356 287.052 206.719 291.614C207.153 297.073 207.053 302.78 210.168 309.508C216.995 285.989 222.154 263.321 230.716 241.953C235.825 229.461 240.289 217.335 247.013 207.433C248.76 204.86 250.587 200.442 253.527 203.534C256.269 206.418 254.529 210.615 253.212 213.766C245.739 231.639 237.351 248.781 231.961 269.219C227.349 284.374 223.506 299.033 220.502 315.267C229.016 312.772 233.383 300.576 242.215 301.151Z" fill="#2E3C1D"/>
<path id="Vector_3" d="M243.387 335.853C245.893 326.191 253.317 325.684 258.812 321.1C265.71 315.346 273.157 310.962 281.373 309.725C273.276 318.017 263.939 323.546 257.123 335.083C252.726 335.853 248.416 335.853 243.387 335.853Z" fill="#2E3C1D"/>
<path id="Vector_4" d="M230.279 270.28C234.524 246.003 245.79 227.073 253.08 205.185C243.927 214.327 239.273 228.198 233.323 241.619C222.501 246.777 210.309 237.133 209.369 222.755C221.025 174.432 245.014 146.97 278.686 135.66C285.39 133.408 292.34 132.694 299.122 130.861C305.87 129.038 307.019 132.649 306.078 141.755C300.455 196.146 285.125 243.385 256.91 281.465C256.138 282.506 255.458 283.686 254.256 285.117C250.412 283.963 249.614 279.673 249.068 275.679C247.949 267.491 244.853 266.109 239.85 268.944C236.95 270.587 234.011 272.95 230.279 270.28Z" fill="#45582D"/>
<path id="Vector_5" d="M208.862 222.513C212.871 237.467 222.951 238.525 232.451 242.298C225.651 262.386 219.512 283.243 214.485 304.772C213.734 307.989 213.247 311.301 210.746 313.002C208.091 314.807 206.281 315.202 205.959 309.772C205.583 303.418 204.724 297.118 204.405 290.76C204.101 284.71 203.445 279.995 198.31 278.277C193.589 276.697 194.478 269.143 192.764 264.324C191.826 261.685 191.455 257.687 189.129 257.427C185.701 257.044 187.318 261.747 186.622 264.156C183.838 273.782 177.874 268.09 172.706 269.813C170.295 265.334 170.966 260.39 170.867 254.683C176.875 239.47 186.859 237.917 197.468 237.256C200.876 241.308 200.802 246.879 202.641 253.071C204.801 242.015 206.642 232.596 208.862 222.513Z" fill="#3A4C26"/>
<path id="Vector_6" d="M229.457 270.254C234.338 270.261 237.802 266.12 241.768 264.349C247.232 261.91 250.36 262.828 250.817 272.14C251.012 276.123 252.43 279.985 253.534 284.666C253.685 285.869 253.595 286.308 253.663 287.394C253.822 288.04 253.912 287.948 253.888 287.877C253.483 288.369 253.107 288.939 252.441 289.926C252.145 290.333 252.239 290.312 252.194 290.292C251.908 290.645 251.668 291.018 251.031 291.901C250.636 292.412 250.623 292.466 250.603 292.471C249.935 293.548 248.976 293.602 247.757 294.398C247.389 294.785 247.469 294.815 247.469 294.756C247.116 295.262 246.749 295.808 246.08 296.727C245.792 297.12 245.89 297.118 245.891 297.049C245.526 297.51 245.169 298.053 244.545 299.003C244.042 300.068 243.725 300.636 242.986 301.375C235.122 305.649 229.303 313.617 222.517 319.34C221.216 320.437 219.655 322.312 218.177 320.703C216.635 319.025 217.715 316.615 218.148 314.464C221.15 299.584 224.839 285.058 229.457 270.254Z" fill="#384825"/>
<path id="Vector_7" d="M198.242 236.927C189.203 242.562 178.98 242.475 171.532 253.648C169.978 234.048 173.597 215.566 178.257 197.332C179.409 192.822 180.533 190.226 183.365 195.478C190.011 207.805 196.422 220.287 198.242 236.927Z" fill="#485830"/>
<path id="Vector_8" d="M21.1627 82.5371C20.9918 81.6813 21.2238 80.6687 21.9738 80.0467C22.183 81.0846 21.8742 81.7328 21.1627 82.5371Z" fill="#FDF3D3"/>
<path id="Vector_9" d="M247.879 295.221C248.139 293.76 248.889 292.736 250.111 292.093C250.534 294.515 249.424 295.048 247.879 295.221Z" fill="#C6AE72"/>
<path id="Vector_10" d="M244.718 299.267C244.546 298.727 244.822 298.055 245.495 297.181C245.651 297.698 245.408 298.417 244.718 299.267Z" fill="#C6AE72"/>
<path id="Vector_11" d="M286.634 307.275C286.677 307.383 286.59 307.166 286.634 307.275Z" fill="#2E3C1D"/>
<path id="Vector_12" d="M251.14 292.506C250.784 291.556 250.933 290.699 251.615 290.058C251.981 291.048 251.813 291.823 251.14 292.506Z" fill="#C6AE72"/>
<path id="Vector_13" d="M246.328 297.143C246.077 296.435 246.361 295.749 247.058 294.881C247.268 295.52 247.065 296.342 246.328 297.143Z" fill="#C6AE72"/>
<path id="Vector_14" d="M252.75 290.373C252.364 289.479 252.582 288.624 253.333 287.788C254.466 288.983 254.299 289.853 252.75 290.373Z" fill="#FDF3D3"/>
<path id="Vector_15" d="M54.2793 176.173C55.175 174.294 56.3916 173.244 58.0003 173.357C58.0444 173.36 58.1806 174.98 58.0507 175.055C57.1688 175.563 56.2269 175.858 54.8198 176.243C54.3353 176.263 54.2959 176.205 54.2793 176.173Z" fill="#45582D"/>
<path id="Vector_16" d="M67.9015 166.026C67.9728 165.97 67.8301 166.083 67.9015 166.026Z" fill="#45582D"/>
<path id="Vector_17" d="M64.7083 168.309C64.7805 168.252 64.6362 168.367 64.7083 168.309Z" fill="#45582D"/>
<path id="Vector_18" d="M61.5151 170.594C61.5879 170.534 61.4424 170.653 61.5151 170.594Z" fill="#45582D"/>
<path id="Vector_19" d="M0 2.84895C0.183101 1.89204 0.37436 0.945996 0.565609 0.000225067C1.67757 0.688186 1.056 1.50867 0.33804 2.59337C0.0238001 2.87373 0.00818496 2.86037 0 2.84895Z" fill="#2D3A1D"/>
<path id="Vector_20" d="M256.311 197.822C256.351 197.927 256.27 197.718 256.311 197.822Z" fill="#2E3C1D"/>
</g>
</svg>
